<svg width="512" height="512" viewBox="0 0 512 512" fill="none" xmlns="http://www.w3.org/2000/svg">
  <rect width="512" height="512" rx="112" fill="#3B1F1F"/>
  <rect x="24" y="24" width="464" height="464" rx="92" fill="#6D0F1B"/>
  <circle cx="382" cy="118" r="64" fill="#D4A373" opacity="0.22"/>
  <circle cx="132" cy="390" r="88" fill="#D4A373" opacity="0.16"/>
  <path d="M128 331C143 270 182 222 244 205C293 192 351 203 392 238" stroke="#F7E8D5" stroke-width="26" stroke-linecap="round"/>
  <path d="M146 330H373" stroke="#D4A373" stroke-width="22" stroke-linecap="round"/>
  <path d="M180 322C188 285 216 259 255 251C288 244 329 253 353 278" stroke="#F7E8D5" stroke-width="18" stroke-linecap="round"/>
  <path d="M196 178C212 145 235 126 266 122C303 118 334 139 351 173" stroke="#D4A373" stroke-width="18" stroke-linecap="round"/>
  <path d="M256 121V84" stroke="#F7E8D5" stroke-width="18" stroke-linecap="round"/>
  <text x="256" y="411" text-anchor="middle" fill="#F7E8D5" font-family="Georgia, serif" font-size="58" font-weight="700">TF</text>
</svg>
